<svg width="102" height="18" viewBox="0 0 102 18" xmlns="http://www.w3.org/2000/svg">
  <path d="M8.32 17.3c1.33 0 2.5-.25 3.5-.72a7.1 7.1 0 0 0 2.38-1.84c.05-.06.09-.12.07-.2-.02-.07-.05-.07-.12-.11l-1.74-1.23-.13-.1a.23.23 0 0 0-.12-.04c-.09 0-.14.08-.2.14a4.4 4.4 0 0 1-1.4 1.11 5.44 5.44 0 0 1-4.4.08A4.8 4.8 0 0 1 4.5 13.2a5.26 5.26 0 0 1-1.07-1.81 6.94 6.94 0 0 1 .01-4.58 5.16 5.16 0 0 1 5-3.45c.64 0 1.28.12 1.94.38l.33.13c.4.18.65.35.98.71l.16.19c.06.05.2.14.44-.05l.6-.45c.3-.23.58-.45.88-.73.15-.13.23-.25.06-.5-.18-.24-.41-.51-.85-.8a7.56 7.56 0 0 0-2.97-1.18 9.53 9.53 0 0 0-4.9.43A7.52 7.52 0 0 0 .65 5.7c-.44 1-.66 2.12-.66 3.36 0 1.22.2 2.33.62 3.34a7.71 7.71 0 0 0 4.34 4.29c1.02.4 2.14.6 3.36.6zm11.97-.1a6.04 6.04 0 0 0 4.07-1.57 5.42 5.42 0 0 0 1.67-4.06 5.32 5.32 0 0 0-3.5-5.15 6.34 6.34 0 0 0-4.49 0A5.38 5.38 0 0 0 15 9.3c-.3.68-.45 1.44-.45 2.27a5.66 5.66 0 0 0 1.68 4.06c.5.5 1.12.88 1.82 1.16.7.27 1.45.41 2.25.41zm0-2.2a2.84 2.84 0 0 1-2.31-1.1 3.4 3.4 0 0 1-.57-1.1 4.22 4.22 0 0 1 0-2.45c.13-.4.32-.77.57-1.09a2.82 2.82 0 0 1 2.3-1.08 2.82 2.82 0 0 1 2.31 1.08c.25.32.44.69.57 1.1a4.11 4.11 0 0 1 0 2.44 3.4 3.4 0 0 1-.56 1.1 2.84 2.84 0 0 1-2.31 1.1zm10.42 1.4v-5.31c0-.35.05-.7.15-1.05.1-.34.23-.65.42-.91a2.04 2.04 0 0 1 1.75-.9c.67 0 1.16.21 1.48.65.32.43.47.98.47 1.64v5.88c0 .27.23.5.5.5h1.64a.5.5 0 0 0 .5-.5v-5.27c0-.34.05-.68.13-1.02.1-.35.23-.66.42-.94.2-.27.44-.5.73-.68.3-.17.64-.26 1.05-.26.43 0 .77.09 1.03.26.25.18.46.4.6.67.15.27.24.58.29.92.04.33.06.66.06.96v5.36c0 .27.23.5.5.5h1.64a.5.5 0 0 0 .5-.5v-6.1c0-.55-.07-1.07-.22-1.59a3.87 3.87 0 0 0-.69-1.36 3.5 3.5 0 0 0-1.2-.96 3.97 3.97 0 0 0-1.78-.36 4 4 0 0 0-2.07.52c-.58.34-1.05.83-1.4 1.48-.3-.6-.72-1.09-1.26-1.45a3.58 3.58 0 0 0-2.05-.55c-.42 0-.8.05-1.16.16a3.35 3.35 0 0 0-1.64 1.1c-.2.23-.36.48-.47.74h-.05v-1.2a.5.5 0 0 0-.5-.5h-1.5a.5.5 0 0 0-.5.5v9.57c0 .27.22.5.5.5h1.63a.5.5 0 0 0 .5-.5zm19.08 0v-5.31c0-.35.05-.7.14-1.05.1-.34.24-.65.42-.91s.42-.48.72-.65c.29-.17.63-.25 1.03-.25.67 0 1.17.21 1.49.65.31.43.47.98.47 1.64v5.88c0 .27.22.5.5.5h1.64a.5.5 0 0 0 .5-.5v-5.27c0-.34.04-.68.13-1.02.09-.35.23-.66.42-.94a2.02 2.02 0 0 1 1.78-.95c.43 0 .77.1 1.02.27.26.18.46.4.6.67.15.27.25.58.3.92.04.33.06.66.06.96v5.36c0 .27.22.5.5.5h1.64a.5.5 0 0 0 .5-.5v-6.1c0-.55-.07-1.07-.22-1.59a3.87 3.87 0 0 0-.7-1.36 3.5 3.5 0 0 0-1.2-.96 3.97 3.97 0 0 0-1.77-.36 4 4 0 0 0-2.07.52c-.59.34-1.06.83-1.41 1.48-.3-.6-.71-1.09-1.25-1.45a3.58 3.58 0 0 0-2.05-.55c-.43 0-.81.05-1.17.16a3.35 3.35 0 0 0-1.63 1.1c-.2.23-.36.48-.48.74h-.04v-1.2a.5.5 0 0 0-.5-.5h-1.51a.5.5 0 0 0-.5.5v9.57c0 .27.22.5.5.5h1.64a.5.5 0 0 0 .5-.5zm20.24.8c.8 0 1.48-.2 2.06-.6.58-.4.99-.87 1.22-1.4h.04v1.2c0 .27.23.5.5.5h1.51a.5.5 0 0 0 .5-.5V6.84a.5.5 0 0 0-.5-.5h-1.64a.5.5 0 0 0-.5.5v5.3c0 .36-.05.7-.15 1.05-.1.34-.26.65-.45.91a2.3 2.3 0 0 1-1.86.9c-.43 0-.77-.08-1.03-.26a1.9 1.9 0 0 1-.6-.67 2.61 2.61 0 0 1-.29-.91 7.5 7.5 0 0 1-.06-.97V6.84a.5.5 0 0 0-.5-.5h-1.64a.5.5 0 0 0-.5.5v6.1c0 .54.07 1.07.22 1.58.14.51.38.97.7 1.36.3.4.7.72 1.2.96s1.08.36 1.77.36zm12.26-.08a5.89 5.89 0 0 0 1.76-.29l-.1-2.07a3.27 3.27 0 0 1-1.12.22c-.58 0-.96-.15-1.13-.46a2.4 2.4 0 0 1-.25-1.17v-4.9h2.14a.5.5 0 0 0 .5-.5V6.84a.5.5 0 0 0-.5-.5h-2.14V3.78a.5.5 0 0 0-.5-.5h-1.6a.5.5 0 0 0-.5.5v2.56h-1.34a.5.5 0 0 0-.5.5v1.1c0 .28.22.5.5.5h1.35v4.94c0 .5.04.99.14 1.44.1.44.27.84.53 1.19.25.34.6.61 1.04.8.44.2 1.01.3 1.72.3zm4.55-12.79c.49 0 .9-.15 1.22-.45.33-.3.5-.68.5-1.13 0-.45-.17-.83-.5-1.13-.33-.3-.73-.45-1.22-.45a1.62 1.62 0 0 0-1.67 1.58 1.62 1.62 0 0 0 1.67 1.58zm1.34 12.07V6.84a.5.5 0 0 0-.5-.5h-1.64a.5.5 0 0 0-.5.5v9.56c0 .27.23.5.5.5h1.64a.5.5 0 0 0 .5-.5zm5.77 0V8.45h1.94a.5.5 0 0 0 .5-.5V6.84a.5.5 0 0 0-.5-.5h-1.94V4.62c0-.26.02-.54.07-.81.04-.28.12-.54.25-.77.12-.24.3-.43.54-.58.23-.14.54-.22.92-.22a3.15 3.15 0 0 1 1.01.16l.18-2.25c-.2-.05-.4-.1-.6-.12-.2-.02-.45-.03-.74-.03-.82 0-1.5.13-2.05.39-.54.25-.98.6-1.3 1.04-.34.44-.57.95-.71 1.53-.14.58-.21 1.18-.21 1.81v1.57h-1.5a.5.5 0 0 0-.5.5v1.1c0 .28.22.5.5.5h1.5v7.96c0 .27.22.5.5.5h1.64a.5.5 0 0 0 .5-.5zm5.68-12.07c.48 0 .89-.15 1.22-.45.33-.3.5-.68.5-1.13 0-.45-.17-.83-.5-1.13-.33-.3-.74-.45-1.22-.45a1.62 1.62 0 0 0-1.68 1.58c0 .43.16.8.48 1.11.31.32.71.47 1.2.47zm1.34 12.07V6.84a.5.5 0 0 0-.5-.5h-1.64a.5.5 0 0 0-.5.5v9.56c0 .27.22.5.5.5h1.64a.5.5 0 0 0 .5-.5z" fill="#FFF"/>
</svg>
