<svg xmlns="http://www.w3.org/2000/svg" width="125" height="35" viewBox="0 0 125 35">
  <g fill="none">
    <path fill="#EAD5A1" d="M9.35525597,4.32921321 L18.1893863,6.55704194 C18.1893863,6.55704194 21.0311836,7.1254014 23.4379403,10.0128078 C25.1675774,12.0897757 29.2759041,16.5629751 31.4440901,18.9135975 C32.3172491,19.858932 32.6596233,21.1783894 32.356272,22.429006 L31.433565,26.2285942 C31.3312808,26.6416936 30.9902906,26.9525463 30.5695156,27.0162768 C30.1487407,27.0800073 29.7309926,26.884073 29.5109663,26.5197907 L21.2978213,12.7247946 C21.2978213,12.7247946 19.638352,9.22692803 15.0458673,8.91818956 C11.9576239,8.72134298 8.86629604,8.57630906 5.77318804,8.48314899 L9.35876436,4.32921321 L9.35525597,4.32921321 Z M106.811361,6.55704194 C106.811361,6.55704194 103.969563,7.1254014 101.562807,10.0128078 C99.8331696,12.0897757 95.7248429,16.5629751 93.5566568,18.9135975 C92.6834979,19.858932 92.3411237,21.1783894 92.644475,22.429006 L93.567182,26.2285942 C93.6694662,26.6416936 94.0104564,26.9525463 94.4312313,27.0162768 C94.8520063,27.0800073 95.2697544,26.884073 95.4897807,26.5197907 L103.706434,12.7247946 C103.706434,12.7247946 105.369412,9.22692803 109.958388,8.91818956 C113.046631,8.72134298 116.137959,8.57630906 119.231067,8.48314899 L115.645491,4.32921321 L106.811361,6.55704194 Z"/>
    <path fill="#FFC025" d="M116.168241,15.3911723 C115.863011,21.0747668 114.287743,24.9269809 112.845794,27.3302292 C110.003997,31.7929035 97.0159311,32.3156538 93.8653953,32.3156538 C90.718368,32.3156538 80.0458404,33.0173322 76.3304536,27.6810684 C71.8677793,21.1203759 71.345029,13.6860939 71.2994199,10.3180379 C71.2573192,6.94998182 72.3519374,5.7711622 75.9375137,4.24150342 C81.7509188,1.8803558 94.3916541,1.70493622 94.3916541,1.70493622 C107.77266,1.70493622 111.709076,2.92936492 114.115832,4.41692301 C116.519081,5.9009727 116.47698,9.70757769 116.168241,15.3911723 M48.6702934,27.6810684 C44.9513982,33.0138238 34.2858874,32.3156538 31.1353517,32.3156538 C27.9848159,32.3156538 14.9967498,31.7893951 12.1549525,27.3337376 C10.7130036,24.9269809 9.13773568,21.0782752 8.8325056,15.3911723 C8.52376713,9.70757769 8.48166643,5.9009727 10.8849147,4.41692301 C13.2916715,2.92936492 17.2280869,1.70493622 30.6090929,1.70493622 C30.6090929,1.70493622 43.2498282,1.8803558 49.0632333,4.24150342 C52.652318,5.7711622 53.7434278,6.95349021 53.7013271,10.3180379 C53.655718,13.6860939 53.1329676,21.1238843 48.6702934,27.6810684 M124.855019,4.23097825 C124.772135,3.46793596 124.199119,2.8493073 123.444646,2.70833625 C107.109574,-0.37554006 96.3633702,-0.249237959 85.9504636,0.319121497 C75.2814445,0.90151452 71.0222569,4.28360412 70.2679527,4.80986288 C69.5066317,5.33612163 67.8155869,5.858872 66.6508009,5.45189856 C65.4825064,5.04141673 62.5003735,5.10105939 62.5003735,5.10105939 C62.5003735,5.10105939 59.5182405,5.04141673 58.3499461,5.45189856 C57.1851601,5.858872 55.4941153,5.33261324 54.7363026,4.80986288 C53.97849,4.28360412 49.7193025,0.90151452 39.0537917,0.319121497 C28.6373768,-0.249237959 17.891173,-0.37554006 1.55610121,2.70833625 C0.802211188,2.85036416 0.229710445,3.4684371 0.145727747,4.23097825 C0.024639543,5.41974826 -0.0210609661,6.61499234 0.00890047039,7.80953778 C0.0226630423,8.35133294 0.347931306,8.83650199 0.843897696,9.05501684 C2.06481801,9.59530916 4.3101887,10.7039609 4.93819081,11.7494617 C5.81528874,13.2054442 5.99070832,15.1876855 6.34154749,17.2295695 C6.68887827,19.2679451 8.37641468,27.2600614 11.8181469,29.9404726 C15.2598792,32.6243923 19.9821744,34.0803749 30.5354167,34.0803749 C41.0921673,34.0803749 45.0566499,34.1400175 50.0140074,29.2387943 C52.9259725,26.4426061 54.855588,20.0854004 55.7853118,16.4682485 C56.718544,12.8546051 58.4762482,9.35673852 62.5003735,9.35673852 C66.5244988,9.35673852 68.282203,12.8546051 69.2154352,16.4717569 C70.1486674,20.0854004 72.071266,26.4426061 74.9902479,29.2423027 C79.944097,34.1400175 83.9085797,34.0838976 94.4618219,34.0838976 C105.018573,34.0838976 109.740868,32.6243923 113.1826,29.9404726 C116.620824,27.2600614 118.311869,19.2679451 118.662708,17.2295695 C119.013547,15.1876855 119.188967,13.2054442 120.062556,11.7494617 C120.690558,10.7004525 122.939437,9.59530916 124.156849,9.05501684 C124.655041,8.83398816 124.981321,8.3498301 124.991846,7.80953778 C125.02693,6.279879 124.942729,5.06597547 124.855019,4.23097825"/>
  </g>
</svg>
