<svg xmlns="http://www.w3.org/2000/svg" width="79" height="79" viewBox="0 0 79 79">
  <defs>
    <path id="lemon-a" d="M3.1 3.02C.5 5.62-.76 9.2 1.62 13.2c1.7 4.53.41 14.41.41 14.41C.57 38.51 4.5 50.59 13.59 59.69c9.09 9.1 21.17 13.03 32.05 11.56 0 0 9.86-1.28 14.39.41 4 2.4 7.57 1.12 10.17-1.48 2.6-2.6 3.87-6.19 1.48-10.18-1.7-4.53-.4-14.41-.4-14.41h-.01C72.73 34.69 68.8 22.6 59.7 13.5 50.62 4.41 38.55.47 27.67 1.95c0 0-9.87 1.28-14.4-.41A8.18 8.18 0 0 0 9.04.27c-2.27 0-4.3 1.1-5.94 2.75z"/>
    <path id="lemon-c" d="M.83 3.7c.06 4.09-.46 8.12-.45 8.12C-1.1 22.7 2.84 34.79 11.93 43.88c9.1 9.1 21.18 13.03 32.07 11.56 0 0 8.81-1.15 13.6.16-1.49-1.39-2.22-1.82-2.94-2.53-12.56.9-28.95-4.98-39.06-15.1C4.9 27.27.24 13.07 1.94.24 1.69 2.08 1.3 3.19.83 3.7z"/>
    <path id="lemon-e" d="M4.37 3.84C.6 7.63-.13 12.32 2.4 16.74c1.14 3.33.55 10.53.22 13.07l-.02.16c-1.56 12 3 24.66 12.26 33.91 9.3 9.3 22.02 13.87 34.07 12.24h.03c4.6-.56 10.35-.69 13.05.22 1.74 1 3.52 1.49 5.28 1.49 2.69 0 5.31-1.16 7.6-3.46 3.8-3.79 4.5-8.47 1.98-12.9-1.14-3.33-.55-10.53-.22-13.07l.02-.15c1.56-12-3-24.67-12.26-33.92C55.17 5.1 42.51.5 30.51 2.08l-.17.01c-2.54.33-9.74.92-13.08-.21-1.74-1-3.52-1.5-5.28-1.5-2.69 0-5.31 1.17-7.6 3.46zM18.24 60.5C10 52.25 5.94 41.02 7.37 30.44l.02-.18c.2-1.68 1.21-10.64-.57-15.38a2.5 2.5 0 0 0-.18-.39c-1.53-2.55-1.15-5 1.12-7.26 2.27-2.27 4.7-2.65 7.26-1.12.12.07.25.13.39.19 4.72 1.77 13.65.78 15.36.56.07 0 .13 0 .2-.02C41.54 5.4 52.78 9.47 61.03 17.72c8.24 8.24 12.3 19.47 10.87 30.05l-.02.18c-.2 1.67-1.2 10.64.57 15.39.05.13.11.26.19.38 1.52 2.55 1.14 5-1.13 7.26-2.26 2.27-4.7 2.65-7.26 1.13a2.36 2.36 0 0 0-.39-.2c-4.94-1.84-14.47-.67-15.55-.54-1.4.2-2.81.29-4.23.29-9.28 0-18.68-4-25.84-11.16z"/>
    <path id="lemon-g" d="M1.1 1.2a1.8 1.8 0 0 0 .71 2.44 39.82 39.82 0 0 1 8.93 6.71c3.33 3.32 6 7.1 7.93 11.25.3.66.96 1.04 1.63 1.04a1.79 1.79 0 0 0 1.63-2.55 42.94 42.94 0 0 0-8.66-12.27A43.3 43.3 0 0 0 3.55.5a1.8 1.8 0 0 0-2.44.7z"/>
    <path id="lemon-i" d="M1.76 1.06a2.39 2.39 0 0 0-.27 3.33c.83 1 2.3 1.13 3.3.28.98-.84 1.1-2.34.27-3.34a2.3 2.3 0 0 0-3.3-.28z"/>
    <path id="lemon-k" d="M.9 1.02a1.2 1.2 0 0 0 .81 1.5A1.2 1.2 0 0 0 2.4.2a1.2 1.2 0 0 0-1.5.82z"/>
    <path id="lemon-m" d="M.48 1.45a1.61 1.61 0 0 0 3.09.9A1.6 1.6 0 0 0 2.03.3C1.32.3.67.75.47 1.45z"/>
    <path id="lemon-o" d="M.76 1.84a1.6 1.6 0 1 0 3.09.9A1.6 1.6 0 0 0 2.31.69c-.7 0-1.34.46-1.55 1.16z"/>
    <path id="lemon-q" d="M.85 1.8a2.01 2.01 0 0 0 3.94.82A2.01 2.01 0 0 0 3.23.26 2.01 2.01 0 0 0 .85 1.8z"/>
    <path id="lemon-s" d="M1.1 1.7a2.89 2.89 0 0 0 5.23 2.44A2.88 2.88 0 0 0 4.92.31a2.88 2.88 0 0 0-3.83 1.4z"/>
    <path id="lemon-u" d="M.65 1.71a2.02 2.02 0 0 0 3.87 1.12A2 2 0 0 0 2.58.25h-.01C1.71.26.91.84.65 1.72z"/>
    <path id="lemon-w" d="M.36 1.43a1.81 1.81 0 1 0 3.48 1.01A1.82 1.82 0 0 0 2.1.13C1.3.13.58.65.35 1.44z"/>
    <path id="lemon-y" d="M.35 1.8a1.81 1.81 0 0 0 3.48 1.01A1.81 1.81 0 0 0 2.6.58 1.81 1.81 0 0 0 .35 1.8z"/>
    <path id="lemon-A" d="M39.72 55.78a1.2 1.2 0 0 0 2.32.68 1.2 1.2 0 0 0-.83-1.5 1.2 1.2 0 0 0-1.5.82z"/>
  </defs>
  <g fill="none" fill-rule="evenodd">
    <g transform="translate(3.059 3)">
      <mask id="lemon-b" fill="#fff">
        <use href="#lemon-a"/>
      </mask>
      <path fill="#F9D741" d="M.06 73.23h73.18V-.03H.06z" mask="url(#lemon-b)"/>
    </g>
    <g transform="translate(4.589 18.825)">
      <mask id="lemon-d" fill="#fff">
        <use href="#lemon-c"/>
      </mask>
      <path fill="#FBB02F" d="M-.22 56.03H57.9V-.18H-.22z" mask="url(#lemon-d)"/>
    </g>
    <g transform="translate(0 .471)">
      <mask id="lemon-f" fill="#fff">
        <use href="#lemon-e"/>
      </mask>
      <path fill="#FEFEFE" d="M.61 78.13h78.05V.09H.61z" mask="url(#lemon-f)"/>
    </g>
    <g transform="translate(45.886 12.178)">
      <mask id="lemon-h" fill="#fff">
        <use href="#lemon-g"/>
      </mask>
      <path fill="#FEFEFE" d="M.59 22.93H22.4V-.02H.59z" mask="url(#lemon-h)"/>
    </g>
    <g transform="translate(39.767 9.119)">
      <mask id="lemon-j" fill="#fff">
        <use href="#lemon-i"/>
      </mask>
      <path fill="#FEFEFE" d="M.64 5.53h5.27V.2H.64z" mask="url(#lemon-j)"/>
    </g>
    <g transform="translate(24.472 44.298)">
      <mask id="lemon-l" fill="#fff">
        <use href="#lemon-k"/>
      </mask>
      <path fill="#FBB02F" d="M2.81-.63l1.23 2.75-2.75 1.23L.07.59z" mask="url(#lemon-l)"/>
    </g>
    <g transform="translate(28.531 47.357)">
      <mask id="lemon-n" fill="#fff">
        <use href="#lemon-m"/>
      </mask>
      <path fill="#FBB02F" d="M2.99-.62l1.55 3.49-3.49 1.55L-.5.94z" mask="url(#lemon-n)"/>
    </g>
    <g transform="translate(33.65 50.945)">
      <mask id="lemon-p" fill="#fff">
        <use href="#lemon-o"/>
      </mask>
      <path fill="#FBB02F" d="M3.28-.22l1.55 3.48-3.49 1.55-1.55-3.48z" mask="url(#lemon-p)"/>
    </g>
    <g transform="translate(21.413 49.416)">
      <mask id="lemon-r" fill="#fff">
        <use href="#lemon-q"/>
      </mask>
      <path fill="#FBB02F" d="M3.99-.83l1.88 4.22-4.22 1.88-1.88-4.22z" mask="url(#lemon-r)"/>
    </g>
    <g transform="translate(26.002 54.004)">
      <mask id="lemon-t" fill="#fff">
        <use href="#lemon-s"/>
      </mask>
      <path fill="#FBB02F" d="M5.32-1.28l2.59 5.82-5.82 2.59-2.58-5.82z" mask="url(#lemon-t)"/>
    </g>
    <g transform="translate(33.65 58.063)">
      <mask id="lemon-v" fill="#fff">
        <use href="#lemon-u"/>
      </mask>
      <path fill="#FBB02F" d="M3.75-.78l1.88 4.22-4.22 1.88L-.47 1.1z" mask="url(#lemon-v)"/>
    </g>
    <g transform="translate(40.767 60.122)">
      <mask id="lemon-x" fill="#fff">
        <use href="#lemon-w"/>
      </mask>
      <path fill="#FBB02F" d="M3.16-.84l1.72 3.85-3.85 1.71L-.69.87z" mask="url(#lemon-x)"/>
    </g>
    <g transform="translate(18.354 43.298)">
      <mask id="lemon-z" fill="#fff">
        <use href="#lemon-y"/>
      </mask>
      <path fill="#FBB02F" d="M3.16-.47l1.72 3.85-3.86 1.71-1.71-3.85z" mask="url(#lemon-z)"/>
    </g>
    <use fill="#FBB02F" href="#lemon-A"/>
  </g>
</svg>
