<svg xmlns="http://www.w3.org/2000/svg" width="111" height="19" viewBox="0 0 111 19">
  <path fill="#FFF" d="M28.8049836,23.7699862 L28.8049836,29.7177783 L33.2128149,29.7177783 C34.6141873,29.7177783 35.7424489,28.2979106 35.7424489,26.7327022 C35.7424489,25.1630217 34.6141873,23.7699862 33.2128149,23.7699862 L28.8049836,23.7699862 Z M26,38.9267939 L26,21.4054035 L33.337058,21.4054035 C36.4935039,21.4054035 38.5463131,23.7196759 38.5463131,26.7315842 C38.5463131,29.7926847 36.4867881,32.0577649 33.3303421,32.0577649 L28.7971484,32.0577649 L28.7971484,38.9267939 L26,38.9267939 L26,38.9267939 Z M52.6999512,35.2183679 C53.6021127,35.043959 54.4796495,34.8695501 55.3549476,34.7208553 C55.5295596,35.7158806 56.1306275,36.9121471 58.1588119,36.9121471 C58.6177278,36.9121471 60.8451489,36.7366201 60.8451489,35.1434615 C60.8451489,32.1326713 53.0883508,35.2440821 53.0883508,29.844113 C53.0883508,27.7020134 55.2486135,26.0842587 57.9461436,26.0842587 C60.6548667,26.0842587 62.9606393,27.2045007 63.3300106,30.0174039 C62.434565,30.1660987 61.5615054,30.3416256 60.6772528,30.5149166 C60.5093568,28.9463541 59.5243665,28.373935 58.024495,28.373935 C56.7037127,28.373935 55.7970739,29.0715708 55.7970739,29.842995 C55.7970739,30.8626164 56.748485,31.1365279 58.2595495,31.2852227 C61.1137826,31.5848483 63.542679,32.2064597 63.542679,35.1423435 C63.542679,37.7808377 61.2145202,39.1749913 58.181198,39.1749913 C54.9352075,39.1749913 53.0771577,37.4834481 52.7301725,35.2172499 M64.224337,28.373935 L64.224337,26.333574 L66.4047472,26.333574 L66.4047472,22.7000544 L69.1089931,22.7000544 L69.1089931,26.333574 L71.7393648,26.333574 L71.7393648,28.373935 L69.1089931,28.373935 L69.1089931,35.5179935 C69.1089931,36.5130189 69.411206,36.8115265 70.2865042,36.8115265 C70.6614721,36.8115265 71.48864,36.7612163 71.48864,36.7612163 L71.48864,38.9267939 C71.48864,38.9267939 70.5204394,39.0274145 69.5600739,39.0274145 C67.180427,39.0274145 66.4036279,37.7573596 66.4036279,35.3424666 L66.4036279,28.373935 L64.2254563,28.373935 L64.224337,28.373935 Z M81.1572146,31.9079521 C81.1572146,29.9916898 80.7318779,28.375053 78.7036935,28.375053 C76.7751274,28.375053 76.249053,29.9916898 76.249053,31.9079521 L76.249053,38.9267939 L73.5448071,38.9267939 L73.5448071,26.333574 L75.9983282,26.333574 L76.2445758,27.7020134 C76.6139471,27.0054957 78.1250117,26.0842587 79.6024971,26.0842587 C81.7067944,26.0842587 82.7029777,27.2290969 83.1283144,27.9759249 C83.7998986,26.8556828 85.4564731,26.0842587 86.9339585,26.0842587 C90.3926174,26.0842587 91.444766,28.17493 91.444766,31.9090701 L91.444766,38.9267939 L88.758429,38.9267939 L88.758429,31.9079521 C88.758429,30.0162859 88.2323547,28.3493389 86.2959534,28.3493389 C84.2700076,28.3493389 83.8334778,29.9704476 83.8334778,31.9157781 L83.8334778,38.936856 L81.1269933,38.936856 L81.1269933,31.9146601 L81.1572146,31.9079521 Z M101.642773,34.0500516 L101.642773,33.4262043 L98.665416,33.4262043 C96.4357563,33.4262043 95.9846756,34.5464463 95.9846756,35.1680577 C95.9846756,36.0143882 96.5611187,36.9121471 98.2120967,36.9121471 C100.417132,36.9121471 101.643892,35.417373 101.643892,34.0500516 M96.3607628,30.6624934 C95.4877032,30.5149166 94.5922576,30.3159115 93.6856188,30.1660987 C93.9654456,27.3789097 96.2712182,26.0853767 98.923976,26.0853767 C102.505759,26.0853767 104.363808,27.8272301 104.363808,31.2617446 L104.363808,35.6409742 C104.363808,36.3878022 104.520511,36.8115265 105.046586,36.8115265 C105.248061,36.8115265 105.57266,36.7612163 105.695784,36.710906 L105.695784,38.9021978 C104.923462,39.1012029 104.419774,39.1012029 104.095175,39.1012029 C102.796778,39.1012029 102.091615,38.3297787 101.89014,37.3090392 C101.386452,37.9306506 100.065669,39.125799 97.9389857,39.1761093 C95.0064012,39.1761093 93.2580435,37.5583545 93.2580435,35.1680577 C93.2580435,33.2026031 95.085872,31.4115574 98.4180492,31.4115574 L101.671875,31.4115574 L101.671875,30.6624934 C101.671875,29.6931821 101.274521,28.373935 98.9463621,28.373935 C97.3905253,28.373935 96.4391142,29.1453592 96.390984,30.6636114 M45.1356739,28.5941822 C42.8858667,28.5941822 41.0557996,30.414296 41.0557996,32.6503081 C41.0557996,34.8863201 42.8914632,36.7053159 45.1412705,36.7053159 C47.3910777,36.7053159 49.2267413,34.8863201 49.2267413,32.6503081 C49.2267413,30.414296 47.4022708,28.5953002 45.1524636,28.5953002 M45.1524636,39.2051774 C41.5259086,39.2051774 38.5709379,36.2760016 38.5709379,32.6648422 C38.5709379,29.0536827 41.5259086,26.1133268 45.1636566,26.1133268 C48.8014047,26.1133268 51.7451823,29.0536827 51.7451823,32.6648422 C51.7451823,36.2760016 48.7902116,39.2163575 45.161418,39.2163575 M121.930214,31.4115574 C121.85522,29.5444873 120.953059,28.3504569 119.100606,28.3504569 C117.298521,28.3504569 116.270997,29.844113 116.194884,31.4115574 L121.93693,31.4115574 L121.930214,31.4115574 Z M122.506657,34.5475643 C123.332706,34.7711655 124.158754,35.0204809 124.985922,35.2697962 C124.409479,37.092146 122.68015,39.1828173 119.225968,39.1828173 C115.744923,39.1828173 113.260061,36.521963 113.260061,32.642482 C113.260061,28.7630011 115.565834,26.1021468 119.091651,26.1021468 C122.595082,26.1021468 124.800117,28.4499594 124.800117,32.2511799 C124.800117,32.631302 124.800117,33.0226041 124.744152,33.4474464 L116.047136,33.4474464 C116.091908,35.2921563 117.367918,36.9356252 119.203582,36.9356252 C120.524364,36.9356252 121.82276,36.3207219 122.483152,34.5766325 L122.506657,34.5475643 Z M125.987702,35.2194859 C126.888744,35.045077 127.765162,34.8729041 128.64046,34.7219733 C128.81731,35.7281787 129.418378,36.9132651 131.446563,36.9132651 C131.897643,36.9132651 134.126184,36.7455642 134.126184,35.1468155 C134.126184,32.1393793 126.369386,35.2474361 126.369386,29.847467 C126.369386,27.7120755 128.529648,26.0909667 131.227178,26.0909667 C133.935902,26.0909667 136.241674,27.2089728 136.611046,30.0263479 C135.7156,30.1828688 134.831347,30.3505697 133.958288,30.5294507 C133.790392,28.9642422 132.805401,28.3940591 131.30553,28.3940591 C129.984748,28.3940591 129.078109,29.0984029 129.078109,29.8698271 C129.078109,30.8961566 130.02952,31.1667141 131.540584,31.3120549 C134.394818,31.6139165 136.823714,32.2399999 136.823714,35.1691757 C136.823714,37.8076699 134.495555,39.2051774 131.473426,39.2051774 C128.216242,39.2051774 126.369386,37.5169883 126.011207,35.2474361 M105.276044,28.373935 L105.276044,26.333574 L107.455335,26.333574 L107.455335,22.7000544 L110.159581,22.7000544 L110.159581,26.333574 L112.778759,26.333574 L112.778759,28.373935 L110.148387,28.373935 L110.148387,35.5179935 C110.148387,36.5130189 110.4506,36.8115265 111.32366,36.8115265 C111.693031,36.8115265 112.521318,36.7612163 112.521318,36.7612163 L112.521318,38.9267939 C112.521318,38.9267939 111.547521,39.0274145 110.59611,39.0274145 C108.211986,39.0274145 107.439664,37.7573596 107.439664,35.3424666 L107.439664,28.373935 L105.257015,28.373935 L105.276044,28.373935 Z" transform="translate(-26 -21)"/>
</svg>
