<svg width="60" height="60" viewBox="0 0 60 60" xmlns="http://www.w3.org/2000/svg"><g fill-rule="nonzero" fill="none"><path d="M21.27 33.76a3.12 3.12 0 1 1-3.12-3.12h3.12v3.12zM22.83 33.76a3.12 3.12 0 1 1 6.24 0v7.8a3.12 3.12 0 1 1-6.24 0v-7.8z" fill="#E01E5A"/><path d="M25.95 21.24a3.12 3.12 0 1 1 3.12-3.12v3.12h-3.12zM25.95 22.82a3.12 3.12 0 1 1 0 6.24h-7.83a3.12 3.12 0 1 1 0-6.24h7.83z" fill="#36C5F0"/><path d="M38.46 25.94a3.12 3.12 0 1 1 3.12 3.12h-3.12v-3.12zM36.9 25.94a3.12 3.12 0 1 1-6.24 0v-7.82a3.12 3.12 0 1 1 6.24 0v7.82z" fill="#2EB67D"/><path d="M33.78 38.43a3.12 3.12 0 1 1-3.12 3.12v-3.12h3.12zM33.78 36.87a3.12 3.12 0 1 1 0-6.23h7.83a3.12 3.12 0 1 1 0 6.23h-7.83z" fill="#ECB22E"/></g></svg>