<svg xmlns="http://www.w3.org/2000/svg" width="76" height="30" viewBox="0 0 76 30">
  <path fill="#FFF" fill-rule="evenodd" d="M74.4230147,25.8219723 L73.9631802,28.934818 L72.9827195,28.934818 C72.6943488,28.934818 72.4620934,29.1655146 72.4324769,29.4819431 L72.4324769,29.4819431 L72.1456649,31.4132479 C72.1160484,31.7016187 72.2890709,31.960373 72.5774417,31.960373 L72.5774417,31.960373 L73.5594611,31.960373 L71.134029,48.5642951 C71.0779136,48.8511071 71.2805526,49.1114202 71.5393069,49.1114202 L71.5393069,49.1114202 L74.2234933,49.1114202 C74.4822476,49.1114202 74.7425607,48.8511071 74.8002349,48.5642951 L74.8002349,48.5642951 L77.1944917,31.960373 L79.6760392,31.960373 C79.9628512,31.960373 80.2231643,31.7016187 80.2527808,31.4132479 L80.2527808,31.4132479 L80.5115351,29.4819431 C80.5692093,29.1655146 80.3977456,28.934818 80.107816,28.934818 L80.107816,28.934818 L77.6262685,28.934818 L78.0580453,25.8219723 C78.2903007,24.2367124 78.9823906,23.3996577 80.0781996,23.3996577 L80.0781996,23.3996577 C80.7718482,23.3996577 81.2612991,23.6599708 81.5216122,23.8049356 L81.5216122,23.8049356 C81.809983,23.977958 82.0702961,23.9483416 82.3025515,23.5726802 L82.3025515,23.5726802 L83.3110698,21.7847813 C83.4264182,21.5852599 83.4264182,21.2672727 83.2814534,21.1238667 L83.2814534,21.1238667 C82.9073508,20.6624734 81.5512287,20 80.1654902,20 L80.1654902,20 C77.1072011,20 75.0589892,21.6725505 74.4230147,25.8219723 L74.4230147,25.8219723 Z M98.1411219,20.286812 C97.8808088,20.286812 97.592438,20.5471251 97.5628215,20.8354959 L97.5628215,20.8354959 L94.8817526,39.9162891 C94.8521362,40.2062187 95.0251587,40.4634142 95.283913,40.4634142 L95.283913,40.4634142 L97.8527511,40.4634142 C98.1115054,40.4634142 98.3998762,40.2062187 98.4294927,39.9162891 L98.4294927,39.9162891 L101.113679,20.8354959 C101.141737,20.5471251 100.939098,20.286812 100.680344,20.286812 L100.680344,20.286812 L98.1411219,20.286812 Z M30.021708,20.286812 C29.7598362,20.286812 29.4730241,20.5471251 29.4449664,20.8354959 L29.4449664,20.8354959 L29.0973627,23.228194 C29.069305,23.5165648 29.2703852,23.7753191 29.5306983,23.7753191 L29.5306983,23.7753191 L35.6457176,23.7753191 L35.6457176,23.8906674 L26.0671314,39.3972217 L26.0094572,39.9162891 C25.9533418,40.2062187 26.154422,40.4634142 26.4147351,40.4634142 L26.4147351,40.4634142 L37.6097565,40.4634142 C37.8965685,40.4634142 38.1584404,40.2062187 38.1849393,39.9162891 L38.1849393,39.9162891 L38.5044853,37.5251498 C38.5309842,37.236779 38.3875782,36.9764659 38.0992074,36.9764659 L38.0992074,36.9764659 L31.9249552,36.9764659 L31.9249552,36.8611176 L41.330519,21.2095985 L41.3881931,20.8354959 C41.4178096,20.5471251 41.2151706,20.286812 40.9564163,20.286812 L40.9564163,20.286812 L30.021708,20.286812 Z M65.4788442,25.1875566 C65.2200898,25.1875566 64.9597768,25.4463109 64.9021026,25.7362404 L64.9021026,25.7362404 L64.4703258,28.934818 L63.4025745,28.934818 C63.1422614,28.934818 62.9131236,29.1655146 62.8554494,29.4819431 L62.8554494,29.4819431 L62.5951363,31.4132479 C62.5670786,31.7016187 62.7385423,31.960373 62.9988554,31.960373 L62.9988554,31.960373 L64.038549,31.960373 L63.3168427,37.0341401 C62.9988554,39.369164 63.8359101,40.751785 65.8264479,40.751785 L65.8264479,40.751785 C67.1248958,40.751785 68.7974463,40.1469858 69.0297017,40.002021 L69.0297017,40.002021 C69.3461302,39.8305573 69.5191526,39.5998606 69.4614785,39.3114899 L69.4614785,39.3114899 L69.1746665,37.4082427 C69.1169923,37.1198719 68.9127946,36.9764659 68.6244238,37.0918142 L68.6244238,37.0918142 C68.336053,37.2071625 67.8746598,37.4378592 67.4709407,37.4378592 L67.4709407,37.4378592 C67.1248958,37.4378592 66.7196179,37.3209521 66.8349662,36.5150727 L66.8349662,36.5150727 L67.4989984,31.960373 L69.5768268,31.960373 C69.8651976,31.960373 70.0958942,31.7016187 70.1551271,31.4132479 L70.1551271,31.4132479 L70.4138814,29.4819431 C70.4715556,29.1655146 70.2985331,28.934818 70.0101623,28.934818 L70.0101623,28.934818 L67.9338927,28.934818 L68.3656695,25.706624 C68.4233437,25.4182532 68.2503212,25.1594989 67.9900081,25.1594989 L67.9900081,25.1594989 L65.4788442,25.1875566 Z M52.6985628,32.2503026 C52.6985628,33.8916779 53.5917329,34.7864067 55.0351456,35.5922861 L55.0351456,35.5922861 C56.3055358,36.3436089 56.5939065,36.630421 56.5939065,37.2071625 L56.5939065,37.2071625 C56.5939065,37.6108816 56.1886287,37.8696359 55.6695613,37.8696359 L55.6695613,37.8696359 C54.7483335,37.8696359 53.9408953,37.5532075 53.5917329,37.3209521 L53.5917329,37.3209521 C53.3922115,37.1775461 53.0446078,37.2648367 52.9292595,37.4674756 L52.9292595,37.4674756 L51.9768565,38.9373872 C51.8334505,39.1680839 51.803834,39.4564546 52.0049142,39.6279183 L52.0049142,39.6279183 C52.4959239,40.0316374 53.6790235,40.751785 55.554213,40.751785 L55.554213,40.751785 C58.5828856,40.751785 60.1135888,38.9950614 60.1135888,37.0060824 L60.1135888,37.0060824 C60.1135888,35.1605094 58.8151409,34.295397 57.0833575,33.3445528 L57.0833575,33.3445528 C56.2759193,32.9112173 55.9314331,32.6540217 55.9314331,32.2206861 L55.9314331,32.2206861 C55.9314331,31.7889093 56.2463028,31.556654 56.8526609,31.556654 L56.8526609,31.556654 C57.7473897,31.556654 58.5283289,31.8450247 58.7855245,31.9884307 L58.7855245,31.9884307 C59.075454,32.1926284 59.3918825,32.0757214 59.5368473,31.8746412 L59.5368473,31.8746412 L60.5173079,30.4327873 C60.7183881,30.1459753 60.6045986,29.7687551 60.3739019,29.5988502 L60.3739019,29.5988502 C59.8828922,29.2231888 58.6405597,28.6464472 57.0552998,28.6464472 L57.0552998,28.6464472 C53.7943718,28.6464472 52.6985628,30.4047296 52.6985628,32.2503026 L52.6985628,32.2503026 Z M40.5807549,35.6203438 C40.5807549,38.3887034 42.3982702,40.751785 45.1681885,40.751785 L45.1681885,40.751785 C46.8422978,40.751785 48.2841517,40.0893116 49.2942288,39.1680839 L49.2942288,39.1680839 C49.5249255,38.9373872 49.5249255,38.6194 49.3815195,38.4183198 L49.3815195,38.4183198 L48.4291165,37.0621978 C48.2841517,36.8315011 48.0238386,36.8891753 47.7650843,37.0621978 L47.7650843,37.0621978 C47.2756334,37.4082427 46.4089623,37.7542876 45.7168724,37.7542876 L45.7168724,37.7542876 C44.2734597,37.7542876 43.7263346,36.8315011 43.8120664,35.6499603 L43.8120664,35.6499603 C46.7550072,35.6203438 51.0525112,34.6414419 51.0525112,31.7016187 L51.0525112,31.7016187 C51.0525112,29.9433363 49.6402738,28.6464472 47.3598065,28.6464472 L47.3598065,28.6464472 C43.3210567,28.6464472 40.5807549,32.0180472 40.5807549,35.6203438 L40.5807549,35.6203438 Z M46.8126813,31.3259573 C47.4751548,31.3259573 47.7947008,31.6439446 47.7947008,32.0476637 L47.7947008,32.0476637 C47.7947008,32.9688914 45.6295818,33.3741693 44.245402,33.4006682 L44.245402,33.4006682 C44.5633892,32.4217663 45.6591982,31.3259573 46.8126813,31.3259573 L46.8126813,31.3259573 Z M90.2054697,28.934818 C89.8906,28.934818 89.6583446,29.0501663 89.5726127,29.4819431 L89.5726127,29.4819431 L88.6763252,35.9960052 C88.6763252,35.9960052 87.8985034,37.6389393 86.4847072,37.6389393 L86.4847072,37.6389393 C85.5058053,37.6389393 85.0132368,36.6880951 85.214317,35.1605094 L85.214317,35.1605094 L86.0248727,29.4819431 C86.0809881,29.1655146 85.8783492,28.934818 85.6180361,28.934818 L85.6180361,28.934818 L83.1084309,28.934818 C82.8496766,28.934818 82.5893635,29.1655146 82.5597471,29.4819431 L82.5597471,29.4819431 L81.7538676,35.0732187 C81.3205321,38.0146007 82.3025515,40.751785 85.4465724,40.751785 L85.4465724,40.751785 C87.4947843,40.751785 88.5921521,39.7432667 89.1969513,39.0807932 L89.1969513,39.0807932 L89.3980315,40.0316374 C89.4557057,40.2623341 89.6006704,40.4634142 89.8313671,40.4634142 L89.8313671,40.4634142 L90.9567925,40.4634142 C91.2155468,40.4634142 91.5054764,40.2062187 91.533534,39.9162891 L91.533534,39.9162891 L92.9769467,29.4819431 C93.0346209,29.1655146 92.831982,28.934818 92.5732276,28.934818 L92.5732276,28.934818 L90.2054697,28.934818 Z" transform="translate(-26 -20)"/>
</svg>
